<svg width="580" height="400" xmlns="http://www.w3.org/2000/svg">
 <!-- Created with Method Draw - http://github.com/duopixel/Method-Draw/ -->

 <g>
  <title>background</title>
  <rect fill="#fff" id="canvas_background" height="402" width="582" y="-1" x="-1"/>
  <g display="none" overflow="visible" y="0" x="0" height="100%" width="100%" id="canvasGrid">
   <rect fill="url(#gridpattern)" stroke-width="0" y="0" x="0" height="100%" width="100%"/>
  </g>
 </g>
 <g>
  <title>Layer 1</title>
  <g stroke="null" id="svg_14">
   <path stroke="null" id="svg_4" d="m343.2929,212.92795c-29.9466,9.30019 -101.88214,-12.06261 -153.65194,-7.7348c-10.54714,-11.10091 -43.36227,-0.55009 -22.68581,11.26934c-1.10497,21.71014 -18.50829,32.64679 -3.31492,65.13041c-15.35778,22.78579 2.92022,24.44426 67.90881,19.07841l121.90018,-6.93435c34.5951,1.64532 48.17025,-9.17634 28.81033,-12.69654l-7.39389,-51.31825c-11.42028,-38.31454 -22.75583,-21.10765 -31.57276,-16.79422zm20.89187,60.27794c-7.45856,19.09241 -121.42576,19.63402 -154.67434,18.49401l-23.33126,-5.01279c-13.40085,-10.05661 -13.246,-52.67879 -8.42051,-57.14782l-0.54036,0.67067c1.34618,-14.3853 166.61508,-0.02867 169.58747,-5.17757l6.77282,-3.59116c3.28476,-9.11814 13.75184,0.54824 14.27417,12.97706l-5.24864,46.2812zm-0.55248,0.89341"/>
   <path stroke="null" id="svg_5" d="m269.661163,177.684323c5.064874,0 10.129752,-1.368128 13.986099,-4.105561c3.74014,-2.653622 5.798629,-6.18313 5.798629,-9.938099s-2.058489,-7.284477 -5.798629,-9.938099c-7.712693,-5.473686 -20.261171,-5.473686 -27.973863,0c-3.74014,2.653622 -5.798629,6.18313 -5.798629,9.938099s2.058489,7.284477 5.798629,9.938099c3.856346,2.737432 8.921225,4.105561 13.987765,4.105561zm-4.981876,-17.566084c1.374537,-0.97504 3.177376,-1.461382 4.981876,-1.461382c1.802834,0 3.605673,0.48752 4.978552,1.461382c1.326395,0.940808 2.056827,2.192073 2.056827,3.522424c0,1.330351 -0.730431,2.580435 -2.055169,3.522424c-2.747417,1.948902 -7.214669,1.94772 -9.962086,0c-1.3264,-0.941989 -2.055169,-2.192073 -2.055169,-3.522424c0,-1.330351 0.730431,-2.580435 2.055169,-3.522424zm0,0"/>
   <path stroke="null" id="svg_6" d="m289.086219,182.081347c1.245055,0.887689 2.878565,1.331533 4.512075,1.331533c1.630187,0 3.258721,-0.441484 4.503771,-1.32445c7.462023,-5.296623 11.572358,-12.337929 11.572358,-19.828981c0,-7.491052 -4.110335,-14.53354 -11.572358,-19.828981c-2.491767,-1.768294 -6.52906,-1.765934 -9.015846,0.005902c-2.486786,1.771836 -2.481805,4.642658 0.009961,6.410955c5.048274,3.582627 7.828894,8.345687 7.828894,13.412124c0,5.065256 -2.78062,9.829498 -7.828894,13.412124c-2.491767,1.768294 -2.496747,4.637938 -0.009961,6.409774zm0,0"/>
   <path stroke="null" id="svg_7" d="m239.251693,181.259701c1.24505,0.882965 2.873584,1.32445 4.503771,1.32445c1.63351,0 3.26702,-0.443844 4.512075,-1.331533c2.486786,-1.771836 2.481805,-4.64148 -0.009961,-6.409774c-5.048274,-3.583805 -7.828894,-8.346869 -7.828894,-13.413306c0,-5.065256 2.78062,-9.828316 7.828894,-13.412124c2.491767,-1.768294 2.496747,-4.637938 0.009961,-6.409774c-2.486786,-1.773014 -6.524079,-1.775377 -9.015846,-0.00708c-7.462023,5.29662 -11.570701,12.337926 -11.572358,19.828978c0,7.491055 4.110335,14.53354 11.572358,19.830163zm0,0"/>
   <path stroke="null" id="svg_8" d="m221.410236,269.3651l-17.112018,0l0,-32.543466c0,-2.503708 -2.853661,-4.532878 -6.374674,-4.532878s-6.374674,2.02917 -6.374674,4.532878l0,37.076344c0,2.503708 2.853661,4.532878 6.374674,4.532878l23.486692,0c3.519351,0 6.374674,-2.02917 6.374674,-4.532878c0,-2.502526 -2.855323,-4.532878 -6.374674,-4.532878zm0,0"/>
   <path stroke="null" id="svg_9" d="m241.160102,232.288756c-3.521009,0 -6.374674,2.02917 -6.374674,4.532878l0,37.076344c0,2.503708 2.853665,4.532878 6.374674,4.532878c3.519351,0 6.374674,-2.02917 6.374674,-4.532878l0,-37.076344c0,-2.503708 -2.855323,-4.532878 -6.374674,-4.532878zm0,0"/>
   <path stroke="null" id="svg_10" d="m296.90862,232.482346c-3.368284,-0.723608 -6.927477,0.632714 -7.945101,3.029002l-9.638375,22.703346l-9.640033,-22.703346c-1.017627,-2.397469 -4.575159,-3.75261 -7.945105,-3.029002c-3.369942,0.723608 -5.277367,3.253286 -4.25974,5.649571l15.742453,37.076347c0.001662,0.003542 0.003323,0.007083 0.004981,0.010625c1.734774,3.947381 10.280824,4.18701 12.194887,0c0.001657,-0.003542 0.003319,-0.005902 0.004976,-0.010625l15.742457,-37.076347c1.017623,-2.397466 -0.891456,-4.925963 -4.261402,-5.649571zm0,0"/>
   <path stroke="null" id="svg_11" d="m344.678834,241.354512c3.521013,0 6.374674,-2.029173 6.374674,-4.532878s-2.853661,-4.532878 -6.374674,-4.532878l-28.757417,0c-3.521013,0 -6.374674,2.02917 -6.374674,4.532878l0,37.076344c0,2.503708 2.853661,4.532878 6.374674,4.532878l27.899161,0c3.521009,0 6.374674,-2.02917 6.374674,-4.532878c0,-2.502526 -2.853665,-4.532878 -6.374674,-4.532878l-21.524486,0l0,-11.80673l18.089799,0c3.521009,0 6.374674,-2.02917 6.374674,-4.532878s-2.853665,-4.532878 -6.374674,-4.532878l-18.089799,0l0,-7.138101l22.382743,0zm0,0"/>
   <path stroke="null" id="svg_12" d="m319.962238,160.601989c0,10.106901 -5.546298,19.610599 -15.617951,26.758144c-2.491767,1.768297 -2.496747,4.63912 -0.009957,6.410955c1.246712,0.886507 2.878561,1.330351 4.512071,1.330351c1.630191,0 3.258721,-0.441484 4.503775,-1.32445c12.485398,-8.860359 19.361411,-20.642301 19.361411,-33.175001c0,-12.531519 -6.876012,-24.314642 -19.361411,-33.175001c-2.491767,-1.768294 -6.527399,-1.765934 -9.015846,0.005902c-2.48679,1.771836 -2.481809,4.642658 0.009957,6.410952c10.071654,7.147548 15.617951,16.650065 15.617951,26.758147zm0,0"/>
   <path stroke="null" id="svg_13" d="m230.717303,196.206414c1.63351,0 3.26702,-0.443844 4.512071,-1.330351c2.48679,-1.771836 2.483467,-4.642658 -0.009957,-6.410955c-10.071654,-7.147545 -15.617951,-16.651244 -15.617951,-26.759326c0,-10.106901 5.546298,-19.610599 15.617951,-26.758144c2.491767,-1.768294 2.496747,-4.63912 0.009957,-6.409774c-2.488448,-1.773017 -6.524079,-1.775377 -9.015846,-0.007083c-12.485398,8.861541 -19.361411,20.643482 -19.361411,33.175001c0,12.532701 6.876012,24.314642 19.361411,33.176183c1.245055,0.882965 2.873584,1.32445 4.503775,1.32445zm0,0"/>
  </g>
 </g>
</svg>
